<?xml version="1.0" encoding="UTF-8"?>
<svg id="Layer_1" data-name="Layer 1" xmlns="http://www.w3.org/2000/svg" viewBox="0 0 2230.21 2621.07">
  <defs>
    <style>
      .cls-1 {
        fill: #005ba7;
      }

      .cls-1, .cls-2, .cls-3, .cls-4 {
        stroke-width: 0px;
      }

      .cls-2 {
        fill: #00b1dc;
        opacity: .15;
      }

      .cls-3 {
        fill: #c67161;
        opacity: .38;
      }

      .cls-4 {
        fill: #fff;
      }
    </style>
  </defs>
  <path class="cls-3" d="m1079.13,2072.68c425.01,0,799.09,218.06,1016.48,548.39h134.6v-1105.4h-150.92l1.47,61.37,2.59,311.92-65.54-66.95c-66.59-61.31-284.54-177.99-541.42-177.99-377.67,0-501.37,190.32-945.94,180.92-302.77-6.4-392.43-113.44-418.83-182.67v-126.6H0v1105.4h62.65c217.38-330.34,591.46-548.39,1016.48-548.39Z"/>
  <path class="cls-2" d="m2110.14,772.89H40.62v531.79h71v337.59c26.4,69.23,116.06,176.27,418.83,182.67,444.56,9.4,568.27-180.92,945.94-180.92,256.88,0,474.83,116.68,541.42,177.99l65.54,66.95-2.59-311.92-6.52-272.36h35.91v-531.79Z"/>
  <path class="cls-1" d="m2017.81,431.64V105.96H111.62c5.08-1.8-9.79,887.6,5.16,871.11,40.45-15.73,82.01-25.84,124.7-39.32,271.6-66.36,638.84-31.77,913.3,46.9,243.95,73.29,541.57,230.02,872.74,114.86,73.3-25.49,14.08-623.52,25.46-649.23-.01,0-35.18-18.64-35.18-18.64Z"/>
  <path class="cls-4" d="m2110.14,0H89.35v343.27c17.3,13.18-65.53,238.9-48.73,250.4l99.89,52.52c426.75,242.26,1028.3-171.97,1312.68-247.4,225.37-59.77,462.67,14.19,570.24,56.39l37.99,20.14c28.37,12.4,48.71-475.32,48.71-475.32Z"/>
</svg>