<?xml version="1.0" encoding="UTF-8"?>
<svg id="Layer_1" data-name="Layer 1" xmlns="http://www.w3.org/2000/svg" viewBox="0 0 520.13 509.65">
  <defs>
    <style>
      .cls-1 {
        fill: none;
      }

      .cls-1, .cls-2, .cls-3, .cls-4, .cls-5 {
        stroke: #231f20;
        stroke-miterlimit: 10;
      }

      .cls-2 {
        fill: #fff;
      }

      .cls-3 {
        fill: #00b1dc;
      }

      .cls-3, .cls-5 {
        stroke-width: 4.6px;
      }

      .cls-4 {
        fill: #0a0203;
      }

      .cls-5 {
        fill: #a1cf6d;
      }
    </style>
  </defs>
  <path class="cls-3" d="m13.78,323.5c-.03-.05.1.24.06.18.01.06.11.58.12.57,7.31,46.68,29.82,94.5,72.97,117.89,15.8,17.75,55.97,46.93,55.86,46.83,2.56,1.51,5.15,2.96,7.75,4.27,0,0,8.72,3.23,8.76,3.21,13.29,8.23,30.21,4.58,45.73,8.01,58.41,8.54,117.59-2.23,169.39-27.59-.16.13-.33.25-.49.38,39.75-17.86,68.06-59.95,92.96-95.24-.08.05-.1.1-.05.17,12.61-20.69,23.84-42.18,32.46-64.73,11.02-21.22,13.75-44.18,15.14-67.12-.37-3.64-.04-7.27-2.02-10.53-.16-1.06-12.01-147.85-62.41-194.43-2.83-2.3-5.73-4.76-8.73-7.19.11.07.23.13.33.21-7.42-5.88-15.29-11.79-24.18-14.29h0c.22-.04-63.2-21.28-94.96-21.72C225.33.19,97.16,43.64,44.92,131.35c-2.34,3.06-3.94,6.6-5.9,9.89-21.66,27.72-25.65,65.87-34.18,99.18-5.79,27.87-1.19,56.95,8.94,83.08Z"/>
  <g>
    <g>
      <path class="cls-4" d="m349.47,257.74c-.12,0-.24.03-.36.07-.15.1-.3.08-.43-.04-2.6,1.33-5.42,1.82-8.28,2.13-6.42,2.03-12.41.86-18.14-2.38-4.6-2.6-7.64-6.55-9.84-11.24.4-2.66-.68-5.15-.89-7.75-.39-4.74-.41-9.47-.05-14.21.05-.69.06-1.37-.06-2.05-.3-4.36.35-8.62,1.34-12.84.36-1.54.69-3.08,1.06-4.61.76-3.23,1.75-6.4,3.11-9.44,1.63-5.65,3.65-11.17,5.78-16.65,1.43-3.69,2.72-7.43,4.41-11.01.14-2.32,1.28-4.26,2.76-5.85,4.66-5.01,10.18-8.57,17.16-9.43,1.98-.24,3.87-.95,5.83-1.32,3.72-.69,6.79.41,9.23,3.26.86,1,1.76,1.97,2.86,2.65,2.09,1.29,3.73,3.02,5.14,4.99.96.95.99,2.27,1.37,3.46.45,1.38.85,2.76.75,4.24-.15,1.55,1.2,2.96.45,4.57-.62,1.17-.44,2.57-1.07,3.73-.19.34-.31.84-.82.77-.49-.06-.58-.54-.66-.93-.14-.74-.06-1.51-.34-2.23-.78-3.82-.94-7.79-2.79-11.36-1.91-3.68-4.38-6.65-8.78-7.37-2.46-.4-6.61,1.42-7.83,3.6-1.99,3.53-2.85,7.33-3.23,11.37-.55,5.87,2.01,10.68,4.54,15.56.38.73.88,1.41,1.15,2.19.84,2.36,2.67,3.5,4.99,3.75,3.6.4,9.28-.84,10.57-5.63.17-.63-2.24-14.67,4.49-14.36,1.06,6.53-2.38,26.01-4,32.37-.42,1.64-.19,3.27-.53,4.89-1.14,5.39-1.24,10.8-.98,16.31.17,3.6.27,7.25.13,10.88-.04,1.01-.18,1.92-1.12,2.49h.02c-.02.22-.21.34-.28.53-.05.48-.1.97-.15,1.45-1.76,3.76-3.89,7.23-7.62,9.39v.07c-1.37,2.95-3.99,4.17-6.88,5.03h-.02c-.37.91-1.39.48-1.97.96Z"/>
      <path class="cls-2" d="m329,223.38c1.02-.08,1.86.24,2.64.91,2.74,2.31,4.33,4.8,3.64,8.8-.75,4.38-2.51,7.97-5.29,11.32-1.47,1.77-3.06,1.88-4.91,1.26-1.86-.63-3.45-1.87-5.38-2.45-1.2-.36-1.8-1.71-2.03-2.93-.68-3.56-.43-7.11.41-10.62.31-1.3,1.28-2.13,2.41-2.67.99-.48,1.77-1.1,2.56-1.9,1.59-1.62,3.86-1.51,5.95-1.71Z"/>
      <path class="cls-2" d="m370.32,175.64c-.02,3.48-.23,6.94-.88,10.36-.49.98-.48,2.11-.98,3.12-2.37,4.83-9.72,6.17-13.69,3.94-.62-.35-1.07-.86-1.41-1.47-1.35-2.44-2.89-4.8-3.85-7.43-.57-1.55-1.77-2.75-2.11-4.48-.21-1.04-.54-2.08-.63-3.16-.3-3.84-.35-7.77.85-11.39.86-2.59,1.64-5.72,4.44-7.07,1.8-.87,3.52-2.12,5.81-1.95,2.1.16,3.78,1,5.35,2.22,3.66,2.85,5.35,6.81,6.16,11.22.37,2.02.63,4.06.94,6.1Z"/>
    </g>
    <g>
      <path class="cls-4" d="m143.62,238.76c-.92-10.3.26-20.55.79-30.81.03-.55.09-1.1.06-1.65-.37-5.71.84-11.2,2.33-16.65.11-.39.3-.86.18-1.21-1.26-3.73.38-7.27.66-10.89.3-3.34.45-6.71,1.53-9.93,1.03-1.69,1.13-3.85,2.63-5.32.14-.06.19-.16.14-.31.03-.21.18-.35.28-.53.71-1.53,1.42-3.06,2.13-4.58,1.94-4.83,5.01-8.76,8.67-12.51,4.08-4.17,8.94-5.99,14.34-6.88,2.83-.47,5.77-.98,8.58-.63,1.98.24,4.25.09,6.02,1.49.06.22.16.38.43.32,1.45.61,2.95,1.13,4.35,1.84,4.92,2.48,8.24,6.3,9.97,11.61.89,2.72,1.65,5.52,3.1,8.06.77,1.35.73,2.88.41,4.37-.26,1.21-.4,2.38-.37,3.66.03,1.35-.51,2.71-.12,4.16,1.17,4.28.7,8.62.68,12.99-.02,6.18-1.04,12.03-2.79,17.87-.62,2.08-.87,4.27-1.29,6.41-.2,1.02.07,2.25-1.25,2.76-.17.07-.18.16-.14.32.66,2.81-1.37,5.25-1.09,8.01.09.91-.73,1.49-1,2.3-.56,1.69-.84,3.4-1.11,5.1-.27,1.68-1.15,3.07-1.89,4.49-.48.92-.88,1.82-1.16,2.8l-.09.13c-1.01,1.34-1.43,2.99-2.21,4.46-1.62,3.07-4.08,5.29-6.27,7.81-1.42,1.63-2.93,3.11-4.48,4.6-1.08,1.04-2.26,1.41-3.6,1.72-2.28.53-4.56.96-6.91.49-.74-.15-1.34.18-1.93.52-2.97,1.74-6.04,2.54-9.59,2.26-1.92-.15-3.6-.5-5.23-1.34-1.42-.73-3.01-.9-4.46-1.53-.76.21-1.36-.18-1.85-.65-3.91-3.74-7.11-7.94-8.4-13.34-.14-.6-.27-1.21-.07-1.82Z"/>
      <path class="cls-2" d="m203.21,164.23c.16,3.63-1.11,6.9-2.58,10.09-.57,1.23-1.53,2.06-2.95,2.63-4.94,2.02-9.15.19-13.52-1.88-6.33-3.01-9.7-8.52-12.8-14.32-1.59-2.98-1.22-6.14-.55-9.23.47-2.14,2.11-3.33,4.13-4.12,2.42-.95,4.79-2.01,7.14-3.11,6.11-2.85,15.5,1.7,17.82,8.01.84,2.29,1.99,4.48,2.68,6.85.49,1.67.66,3.37.61,5.09Z"/>
      <path class="cls-2" d="m169.77,240.46c.13,2.97-.87,5.68-1.95,8.35-.78,1.92-2.24,3.33-4.32,3.75-1.88.38-3.58,1.52-5.74.76-3.9-1.37-5.59-4.41-6.6-8.02-.78-2.78-.36-5.62.27-8.36.36-1.58,1.72-2.64,2.94-3.62,1.44-1.15,3.05-2.07,4.56-3.13.68-.48,1.29-.55,2.1-.23,2.94,1.15,5.29,3.17,7.54,5.24,1.44,1.33,1.12,3.43,1.18,5.26Z"/>
    </g>
  </g>
  <path class="cls-4" d="m279.91,327.81c3.1-4.54,17.68-15.91,14.73-3.24-13.67,15.77-37.9,24.15-58.81,23.13-10.99,3.53-59.1-46.56-34.48-42.67h0c14.62,29.57,50.98,43.72,78.56,22.78Z"/>
  <g>
    <path class="cls-5" d="m286.64,395.97c2.72.73,4.94,4.36,9.96,4.8,0,0,18.71,3.19,22.15-2.57.21-1.08,1.08-.7,1.37-.48,3.62,3.74,5.39-6.74,13.47-3.12-.48,3.88,6.09-1.91,6.22,2.24,5.71,1.01,5.83,5.51,6.42,10.8.21,3.44,4.28,5.32,3.97,8.75-.52,3.86-1.3,7.6-3.62,10.78-.84.29.67,1.7-.63,1.47-3.08,2.65,1.57,4.58-.73,5.05-9.15-.08-16.07,6.04-24.35,7.48-2.06-.15-.34,3.76-2.82,2.64-1.73-.19-4.83,6.69-4.83,6.69-1.74,2.86-3.1,1.09-3.44,2.92-.37,1.68-3.17,1.42-3.65,3.47-25.64,9.41-13.95-11.09-31.73-12.78-2.51,1.11-5.44-.54-8.16-.3-3.67.41-8.13,1.54-11.08-2.25-.76-1.54-3.68-.59-2.84-2.89.93-1.89.67-5.52,3.09-6.05,1.69.26,1.63-.7,1.39-1.74-1.77-11.36,10.53-16.34,16.2-25.24.52-3.69,4.88-3.34,6.46-6.31-.3-.5.2-.37.38-.49,2.58.09,3.97-4.1,6.78-2.87Z"/>
    <path class="cls-5" d="m399.94,298.16c2.09.04,1.73-2.68,3.5-3.15,3.08-.82,3.66-3.89,5.62-5.74,11.85-6.13.44,9.36,17.86,3.41,1.63-6.1,5.71-1.93,9.91-3.92,6.15-.58,11.62-3.16,16.65-6.39,19.92-8.65,26.82,16.05,11.63,26.7-1.63,1.38-2.35,3.67-2.66,5.47,2.63,2.25-2.08,1.02-1.81,3.19.32,2.65-2.1,5.12-2.2,7.02,1.19.58-.33,2.75-1.13,3.23-2.1,2.99,2.14,7.19.02,8.19-.69.61-2.21.85-.64,2.31,1.55,1.4-2.05,3.74-.69,5.28,1.79,4.35,1.53,12-1.37,15.42-3.82.99-4.51,4.66-6.6,7.27-3.69,3.14-8.25,5.63-11.79,8.54-2.67-1.86-9.23-.47-9.93-3.3.25-.76-.5-.68-.91-.72-.82-.09-1.61,0-1.96-1.08-2.29-.75-4.99,1.98-6-2.4-1.25-2.75-4.84-.73-6.61-2.93-3.05.58-6.13-2.21-9.57-1-1.54.79-4.81-1.72-5.47.88-.57,2.25-1.31-.91-2.43-.86-1.26-.39-2.76-.41-3.1-2.21-2.04-.36-3.44-2.84-3.41-5.01.16-.63-1.45-1.3.06-1.94-1.4-3.05-.59-6.61-.85-10.19-.4-1.65.09-2.41,1.74-2.97,1.84-1.32.13-4.52.19-6.51-.61-1.76,1.52-2.47,1.05-4.27,4.97-8.81,1.16-29.3,10.9-32.31Z"/>
    <path class="cls-5" d="m282.15,178.64c-3.84-1.21-9.17.78-11.51-2.41-1.59-2.17-4.63.77-6.88.48-1.12-.14-3.4.52-3.76.71-3.72,1.95-8.11.64-9.52-2.77-.51-1.68-3.78-.18-3.57-2.82-1.03-5.27-.32-11.09,1.69-16.43.89-3.98-1.13-8.8,1.17-12.43,2.85-.4-.15-2.19.81-3.27,3.19-1.01,2.36-6.71,4.76-6.64,1.73-.02,2.49-1.4,3.55-2.36,5.77,1.17,13.48.39,17.52,6.42.62-.87,1.26-1.86,1.73-.02.11,3.76,4.88,4.82,5.11,7.68-.04.72.07,1.25,1,1.49,3.65.74,1.15,6.21,5.06,6.56,1.22.78,1.2,2.99,3.07,3.22.8.25.93.66.93,1.33-.67,2.36,2.98,3.55,1.29,5.63-1.07,4.33-.11,10.99-5.17,13.13-1.03,3.36-4.04,3.85-7.26,2.49Z"/>
    <path class="cls-5" d="m412.88,68.45c-4.19-6.44-10.27-11.76-13.4-18.64-1.42-9.31,6.18-16.24,9.25-24.23,2.8-.71,9.11.15,9.11.15,12.35,3.53,32.57,21.21,32.57,21.21,39.99,34.37,55.64,85.52,66.63,135.96,3.35,13.25-4.98,24.72-3.25,37.81-.86,5.15,2.58,16.41-3.8,17.77-11.4-12.55-25.42-18.93-41.72-9.31-8.49-2.06-17.93-.22-25.74,4.72-4.68.28-9.65-.82-14.72-.54-5.94,1.56-11.18,2.71-16.76,5.76-4.98,2.22-6.81.95-11.92.71-1.53,1.84-2.55-4.1-4.04-4.77-2.32-4.77-1.7-11.23,2.59-15.2,1.25-2.14.67-4.94,3.27-6.52,3.37-9.85-.11-20.95,6.43-29.97,10.21-8.9,22.23-23.06,17.03-38.8-17.31-27.32,13.45-54.28-11.53-76.11Z"/>
    <path class="cls-5" d="m306.72,30.32c-.11,1.79-2.47,2.03-1.5,4.1.22.46.11,1.19-.49,1.43-2.9,1.65,1.94,5.7-2.47,6.59-1,6.8,4.78,12.98,6.16,19.48,2.97,7.36-3.12,16.14-9.95,18.72-1.29.16-11.82,4.73-11.82,4.73-3.35,1.98-8.31-2.62-11.03-4.03-4.26-2.2-5.58-8.42-7.96-12.88-4-4.24-7.08-10.77-13.73-10.64-1.99-1.22-4.69-3.1-7.03-1.97-13.59.16-29.34-23.64-27.66-35.74,4.51-11.18,115.6-28.1,104.2-9.54,0,0,1.01,2.1-.08,3.24h0c-1.91,1.77-4.71,3.45-6.96,5-1.45,1.3-1.03,4.61-3.44,4.54-.87-.1-1,.46-1.16,1.08-1.25,2.29-3.3,4-5.08,5.88Z"/>
    <path class="cls-5" d="m165.58,68.89c-6,14.44-1,32.73-13.36,44.54-2.95,3.31-8.98,1.67-11.1,4.26-2.56,2.04-7.2,3.15-9.67,6.05-12.01,6.43-24.18,19.46-19.51,34.03,2.49,5.08-5.21,8.41-7.39,12.56-6.35,5.96-10.69,14.73-19.56,17.29-5.13,1.62-6.47-5.49-10.19-7.37-9.14-10.11,9.89-23.86,1.07-35.07-2.01-5.01-7.9-9.49-6.52-15.44,5.73-5.26,6.69-14.03,13.64-18.17,2.19-6.1,8.41-10.05,7.6-16.93,3.54-4.64-.47-13.36,4.26-17.37,24.89-21.11,56.54-36.2,86.32-48.08,4.66-.45,4.82,5.21,5.77,8.37-.3,2.27-3.83,4.45-5.71,6.01-.72.21-.47,2.16-1.36,2.97.62.95,1.29-.4,1.88.2-.34,1.25-1.56.84-2.33,1.27-.72.4-2.17.04-1.78,1.66-.44.82-2.29.41-2.4,1.97-2.63,5.9-6.33,11.7-9.64,17.22Z"/>
    <path class="cls-5" d="m139.54,374.29c.03,2.81,2.78,4.91,4.62,6.8.59,4.95.63,10.5.86,15.6-7.74,9.68-10.9,27.79-.63,38.17,2.02.85.94,3.91,3.61,4.25,1.51.41,2.41,1.39,2.23,3.2.54,4.95,1.24,10.52,2.77,14.93-2.18,3.34-5.76,2.44-2.06,8.07,4.8,3.32,10.17,8.3,12.31,13.25.03.07,9.06,21.42,9.64,22.46-9.54,2.8-16.1-2.75-21.95-6.14-16.94-9.81-32.03-24.61-47.88-36.72-19.46-14.86-34.85-27.45-54.34-46.4-16.51-16.06-49.01-107.06-29.42-95.84-1.82,4.33,13.21-6.85,17.78-4.9,13.76,1.44,27.04,3.88,39.58,10.27,8.1.07,2.87,1.51,6.72,3.91,8,2.51,10.62-3.79,17.15-4.67,3.39-1.65,8.03-.47,12.06-1.37,2.86-1.09,2.94,1.96,5.61,1.49,1.73-1.05,6.61.42,6.5,2.86.72,2.69,4.46-.25,5.86,2.35.4.59,4.1,9.26,3.86,13.88.17,6.07-3.89,12.34-1.4,18.32.48,6.07,3.6,11.52,6.5,16.25Z"/>
  </g>
  <path class="cls-1" d="m512.83,241.43c-.02-.11-.15-1.67-.42-4.4,2.9-3.52.66-12.02,1.37-16.31-1.73-13.09,6.6-24.56,3.25-37.81-10.98-50.44-26.64-101.59-66.63-135.96,0,0-3.05-2.66-7.49-6.13-.41-.34-.81-.67-1.22-1.01.11.07.23.13.33.21-6.93-5.49-14.25-10.96-22.42-13.7-.6-.22-1.19-.42-1.75-.58.22-.04-63.2-21.28-94.96-21.72-1.06-.02-2.13-.04-3.19-.05-16.21-5.21-71.16,2.8-92.25,10.97-73.44,17.84-145.96,57.34-182.12,118.05-2.34,3.06-3.94,6.6-5.9,9.89-21.66,27.72-25.65,65.87-34.18,99.18-5.79,27.87-1.19,56.95,8.94,83.08-.03-.05.1.24.06.18.01.06.11.58.12.57,0,0,0,0,0,0,.15,1.05.33,2.15.55,3.31,3.86,22.47,11.27,45.06,22.84,64.94,4.59,9.67,8.68,16.57,10.97,17.61,1.38,1.37,2.81,2.69,4.27,3.98,10.26,13.95,21.42,22.6,34.35,28.05,4.97,5.58,12.34,12.29,20.12,18.86,11.68,11.6,25.2,22.21,39.34,30.02.12.07.25.14.37.21,1.26.69,2.52,1.36,3.78,2.01,0,0,0,0,0,0h0s8.72,3.23,8.76,3.21c13.29,8.23,30.21,4.58,45.73,8.01,58.41,8.54,117.59-2.23,169.39-27.59-.16.13-.33.25-.49.38,39.71-17.84,68.01-59.87,92.89-95.14,0,.02,0,.05.02.07,12.61-20.69,23.84-42.18,32.46-64.73,10.56-20.33,13.5-42.25,14.95-64.22.09-.09.14-.2.09-.35-.03.06-.05.13-.08.19.06-.91.12-1.83.18-2.74-.37-3.64-.04-7.27-2.02-10.53Z"/>
  <path class="cls-1" d="m512.83,241.43c-.02-.11-.15-1.67-.42-4.4,2.9-3.52.66-12.02,1.37-16.31-1.73-13.09,6.6-24.56,3.25-37.81-10.98-50.44-26.64-101.59-66.63-135.96,0,0-3.05-2.66-7.49-6.13-.41-.34-.81-.67-1.22-1.01.11.07.23.13.33.21-6.93-5.49-14.25-10.96-22.42-13.7-.6-.22-1.19-.42-1.75-.58.22-.04-63.2-21.28-94.96-21.72-1.06-.02-2.13-.04-3.19-.05-16.21-5.21-71.16,2.8-92.25,10.97-73.44,17.84-145.96,57.34-182.12,118.05-2.34,3.06-3.94,6.6-5.9,9.89-21.66,27.72-25.65,65.87-34.18,99.18-5.79,27.87-1.19,56.95,8.94,83.08-.03-.05.1.24.06.18.01.06.11.58.12.57,0,0,0,0,0,0,.15,1.05.33,2.15.55,3.31,3.86,22.47,11.27,45.06,22.84,64.94,4.59,9.67,8.68,16.57,10.97,17.61,1.38,1.37,2.81,2.69,4.27,3.98,10.26,13.95,21.42,22.6,34.35,28.05,4.97,5.58,12.34,12.29,20.12,18.86,11.68,11.6,25.2,22.21,39.34,30.02.12.07.25.14.37.21,1.26.69,2.52,1.36,3.78,2.01,0,0,0,0,0,0h0s8.72,3.23,8.76,3.21c13.29,8.23,30.21,4.58,45.73,8.01,58.41,8.54,117.59-2.23,169.39-27.59-.16.13-.33.25-.49.38,39.71-17.84,68.01-59.87,92.89-95.14,0,.02,0,.05.02.07,12.61-20.69,23.84-42.18,32.46-64.73,10.56-20.33,13.5-42.25,14.95-64.22.09-.09.14-.2.09-.35-.03.06-.05.13-.08.19.06-.91.12-1.83.18-2.74-.37-3.64-.04-7.27-2.02-10.53Z"/>
</svg>