<?xml version="1.0" encoding="UTF-8"?>
<svg id="Layer_1" data-name="Layer 1" xmlns="http://www.w3.org/2000/svg" viewBox="0 0 1756.25 993.57">
  <defs>
    <style>
      .cls-1 {
        fill: #00b1dc;
        opacity: .15;
        stroke-width: 0px;
      }
    </style>
  </defs>
  <path class="cls-1" d="m1753.95,715.89l-5.81-242.47L1739.98,0H3.88c-.3,15.23,2.02,30.89,3.8,44.86,1.89,14.78,3.66,29.56,3.95,44.48.36,18.17-.96,36.33-2.84,54.4C5.11,179.25-.82,214.75.09,250.57c.47,18.4,2.57,36.72,3.06,55.13.51,19.06.33,38.14-.03,57.2-.73,37.8-2.15,75.62-.56,113.42.07,1.73-.6,2.99-1.61,3.78v293.84c23.5,61.64,103.32,156.92,372.86,162.62,395.77,8.37,505.89-161.06,842.11-161.06,228.69,0,422.71,103.88,481.99,158.46l58.35,59.6-2.3-277.68Z"/>
</svg>