<?xml version="1.0" encoding="UTF-8"?><svg id="Layer_1" xmlns="http://www.w3.org/2000/svg" viewBox="0 0 1909 720"><defs><style>.cls-1{fill:#fff;stroke-width:0px;}</style></defs><path class="cls-1" d="M1908.98,158.63V0H.99v11.71c0,.87-.19,1.61-.5,2.25.31.63.5,1.37.5,2.24v85.45c0,1.25-.38,2.26-.99,3.02.68.78,1.12,1.84,1.12,3.17v99.82c0,1.17-.33,2.13-.88,2.88.92.8,1.54,2,1.54,3.59v99.56c0,1.5-.55,2.65-1.38,3.45.12.44.19.91.19,1.43v302.96l44.58,23.44c425.95,241.8,1026.37-171.65,1310.22-246.93,213.3-56.57,437.28,6.87,551.45,49.5.13-.17.28-.33.44-.5l1.7-1.7V159.42c0-.14.01-.27.02-.4,0-.13-.02-.26-.02-.4Z"/></svg>